<svg xmlns="http://www.w3.org/2000/svg" viewBox="0 0 516.66 522.15"><defs><style>.cls-1{fill:#010101;}</style></defs><title>Lichess Improved Logo</title><g id="Laag_2" data-name="Laag 2"><g id="Laag_1-2" data-name="Laag 1"><path class="cls-1" d="M513.93,298.58c-5.67-10.66-123.75-224.5-123.75-224.5L406,6.4a5.2,5.2,0,0,0-1.19-4.66,5.13,5.13,0,0,0-4.5-1.7c-32.33,3.82-72.14,14.68-101.74,31.74A250.76,250.76,0,0,0,249.58,27C111.74,27,0,138.72,0,276.56S111.74,522.15,249.58,522.15c70.19,0,125.07-30.12,168.25-77.3,3-3.26,2.68-6.6.48-8.73s-5.58-2.42-8.68.47c-40.78,38-100.6,60.14-160,60.14-119.39,0-216.17-100.78-216.17-220.17S130.2,60.4,249.58,60.4c21.55-.51,58.94,6,58.94,6,20.13-11.87,41.3-24.45,61.15-27.09L354.57,82.6A5.18,5.18,0,0,0,355,87L487.25,308.59c-4.19,44.11-45.1,54.49-56.39,56.78-6.25-14-17.7-29.66-50.16-61-9.16-8.85-26.3-20.45-46.15-33.89C283.14,235.7,205.44,183.1,217.32,140.39a5.22,5.22,0,0,0-10-2.83c-17.39,60.55,61.31,121.31,113.39,161.51,14.19,11,26.44,20.42,34.59,28.09,37.91,35.67,55.75,62,59.43,69.11a5.27,5.27,0,0,0,6,2.65c.77-.21,62.1-16.54,85.94-54.42C518.14,326.18,518.5,307.17,513.93,298.58Z"/></g></g></svg>